<?xml version="1.0" encoding="utf-8"?>
<!-- Generator: Circuit Diagram, cdlibrary.dll 1.0.0.0 -->
<!DOCTYPE svg PUBLIC "-//W3C//DTD SVG 1.1//EN" "http://www.w3.org/Graphics/SVG/1.1/DTD/svg11.dtd">
<svg version="1.1" width="740" height="420" xmlns="http://www.w3.org/2000/svg">
	<line x1="180" y1="180" x2="290" y2="180" style="stroke:rgb(0, 0, 0);stroke-linecap:square;stroke-width:2" />
	<line x1="180" y1="180" x2="180" y2="390" style="stroke:rgb(0, 0, 0);stroke-linecap:square;stroke-width:2" />
	<line x1="180" y1="390" x2="220" y2="390" style="stroke:rgb(0, 0, 0);stroke-linecap:square;stroke-width:2" />
	<line x1="220" y1="160" x2="290" y2="160" style="stroke:rgb(0, 0, 0);stroke-linecap:square;stroke-width:2" />
	<line x1="220" y1="160" x2="220" y2="370" style="stroke:rgb(0, 0, 0);stroke-linecap:square;stroke-width:2" />
	<text x="280" y="350" style="font-family:Arial;font-size:11px;text-anchor:middle" dominant-baseline="middle" transform="rotate(0, 280, 350)">DC Motor</text>
	<rect x="230" y="360" width="100" height="40" style="fill-opacity:0;fill:rgb(0, 0, 0);stroke:rgb(0, 0, 0);stroke-width:2" />
	<line x1="220" y1="370" x2="230" y2="370" style="stroke:rgb(0, 0, 0);stroke-linecap:square;stroke-width:2" />
	<text x="234" y="370" style="font-family:Arial;font-size:11px;text-anchor:start" dominant-baseline="middle" transform="rotate(0, 234, 370)">+ve (red)</text>
	<line x1="220" y1="390" x2="230" y2="390" style="stroke:rgb(0, 0, 0);stroke-linecap:square;stroke-width:2" />
	<text x="234" y="390" style="font-family:Arial;font-size:11px;text-anchor:start" dominant-baseline="middle" transform="rotate(0, 234, 390)">-ve (black)</text>
	<line x1="550" y1="130" x2="600" y2="130" style="stroke:rgb(0, 0, 0);stroke-linecap:square;stroke-width:2" />
	<line x1="550" y1="120" x2="550" y2="130" style="stroke:rgb(0, 0, 0);stroke-linecap:square;stroke-width:2" />
	<line x1="530" y1="120" x2="550" y2="120" style="stroke:rgb(0, 0, 0);stroke-linecap:square;stroke-width:2" />
	<line x1="530" y1="110" x2="530" y2="120" style="stroke:rgb(0, 0, 0);stroke-linecap:square;stroke-width:2" />
	<line x1="520" y1="110" x2="530" y2="110" style="stroke:rgb(0, 0, 0);stroke-linecap:square;stroke-width:2" />
	<line x1="420" y1="110" x2="520" y2="110" style="stroke:rgb(0, 0, 0);stroke-linecap:square;stroke-width:2" />
	<line x1="520" y1="110" x2="520" y2="120" style="stroke:rgb(0, 0, 0);stroke-linecap:square;stroke-width:2" />
	<line x1="520" y1="120" x2="520" y2="130" style="stroke:rgb(0, 0, 0);stroke-linecap:square;stroke-width:2" />
	<line x1="520" y1="120" x2="520" y2="130" style="stroke:rgb(0, 0, 0);stroke-linecap:square;stroke-width:2" />
	<line x1="520" y1="120" x2="520" y2="125" style="stroke:rgb(0, 0, 0);stroke-linecap:square;stroke-width:2" />
	<line x1="520" y1="165" x2="520" y2="170" style="stroke:rgb(0, 0, 0);stroke-linecap:square;stroke-width:2" />
	<rect x="512" y="125" width="16" height="40" style="fill-opacity:0;fill:rgb(0, 0, 0);stroke:rgb(0, 0, 0);stroke-width:2" />
	<text x="506" y="145" style="font-family:Arial;font-size:11px;text-anchor:end" dominant-baseline="middle" transform="rotate(0, 506, 145)">100 Ω</text>
	<line x1="520" y1="170" x2="520" y2="230" style="stroke:rgb(0, 0, 0);stroke-linecap:square;stroke-width:2" />
	<line x1="550" y1="110" x2="610" y2="110" style="stroke:rgb(0, 0, 0);stroke-linecap:square;stroke-width:2" />
	<line x1="550" y1="50" x2="550" y2="110" style="stroke:rgb(0, 0, 0);stroke-linecap:square;stroke-width:2" />
	<line x1="550" y1="40" x2="550" y2="50" style="stroke:rgb(0, 0, 0);stroke-linecap:square;stroke-width:2" />
	<text x="660" y="90" style="font-family:Arial;font-size:11px;text-anchor:middle" dominant-baseline="middle" transform="rotate(0, 660, 90)">Peltier Element</text>
	<rect x="610" y="100" width="100" height="40" style="fill-opacity:0;fill:rgb(0, 0, 0);stroke:rgb(0, 0, 0);stroke-width:2" />
	<line x1="600" y1="110" x2="610" y2="110" style="stroke:rgb(0, 0, 0);stroke-linecap:square;stroke-width:2" />
	<text x="614" y="110" style="font-family:Arial;font-size:11px;text-anchor:start" dominant-baseline="middle" transform="rotate(0, 614, 110)">+ve (red)</text>
	<line x1="600" y1="130" x2="610" y2="130" style="stroke:rgb(0, 0, 0);stroke-linecap:square;stroke-width:2" />
	<text x="614" y="130" style="font-family:Arial;font-size:11px;text-anchor:start" dominant-baseline="middle" transform="rotate(0, 614, 130)">-ve (black)</text>
	<line x1="560" y1="250" x2="560" y2="280" style="stroke:rgb(0, 0, 0);stroke-linecap:square;stroke-width:2" />
	<line x1="480" y1="280" x2="560" y2="280" style="stroke:rgb(0, 0, 0);stroke-linecap:square;stroke-width:2" />
	<line x1="480" y1="270" x2="480" y2="280" style="stroke:rgb(0, 0, 0);stroke-linecap:square;stroke-width:2" />
	<line x1="480" y1="20" x2="480" y2="270" style="stroke:rgb(0, 0, 0);stroke-linecap:square;stroke-width:2" />
	<line x1="480" y1="20" x2="550" y2="20" style="stroke:rgb(0, 0, 0);stroke-linecap:square;stroke-width:2" />
	<line x1="550" y1="20" x2="550" y2="30" style="stroke:rgb(0, 0, 0);stroke-linecap:square;stroke-width:2" />
	<line x1="420" y1="230" x2="470" y2="230" style="stroke:rgb(0, 0, 0);stroke-linecap:square;stroke-width:2" />
	<line x1="470" y1="200" x2="470" y2="230" style="stroke:rgb(0, 0, 0);stroke-linecap:square;stroke-width:2" />
	<line x1="470" y1="200" x2="560" y2="200" style="stroke:rgb(0, 0, 0);stroke-linecap:square;stroke-width:2" />
	<line x1="550" y1="40" x2="550" y2="44" style="stroke:rgb(0, 0, 0);stroke-linecap:square;stroke-width:2" />
	<line x1="540" y1="44" x2="560" y2="44" style="stroke:rgb(0, 0, 0);stroke-linecap:square;stroke-width:2" />
	<line x1="545" y1="38" x2="555" y2="38" style="stroke:rgb(0, 0, 0);stroke-linecap:square;stroke-width:2" />
	<line x1="540" y1="32" x2="560" y2="32" style="stroke:rgb(0, 0, 0);stroke-linecap:square;stroke-width:2" />
	<line x1="545" y1="26" x2="555" y2="26" style="stroke:rgb(0, 0, 0);stroke-linecap:square;stroke-width:2" />
	<line x1="550" y1="26" x2="550" y2="30" style="stroke:rgb(0, 0, 0);stroke-linecap:square;stroke-width:2" />
	<line x1="560" y1="250" x2="560" y2="243" style="stroke:rgb(0, 0, 0);stroke-linecap:square;stroke-width:2" />
	<line x1="560" y1="217" x2="560" y2="200" style="stroke:rgb(0, 0, 0);stroke-linecap:square;stroke-width:2" />
	<line x1="520" y1="230" x2="546" y2="230" style="stroke:rgb(0, 0, 0);stroke-linecap:square;stroke-width:2" />
	<line x1="545.5" y1="238" x2="545.5" y2="222" style="stroke:rgb(0, 0, 0);stroke-linecap:square;stroke-width:3" />
	<line x1="560" y1="243" x2="545.5" y2="234" style="stroke:rgb(0, 0, 0);stroke-linecap:square;stroke-width:2" />
	<line x1="545.5" y1="226" x2="560" y2="217" style="stroke:rgb(0, 0, 0);stroke-linecap:square;stroke-width:2" />
	<ellipse cx="550" cy="230" rx="16" ry="16" style="fill-opacity:0;fill:rgb(0, 0, 0);stroke:rgb(0, 0, 0);stroke-width:2" />
	<path d="M 552,223 L 556,225 L 557,218 L 551,222 L 553,223" style="fill-opacity:1;fill:rgb(0, 0, 0);stroke:rgb(0, 0, 0);stroke-linecap:square;stroke-width:2" />
	<line x1="140" y1="210" x2="290" y2="210" style="stroke:rgb(0, 0, 0);stroke-linecap:square;stroke-width:2" />
	<line x1="140" y1="160" x2="140" y2="210" style="stroke:rgb(0, 0, 0);stroke-linecap:square;stroke-width:2" />
	<line x1="140" y1="170" x2="290" y2="170" style="stroke:rgb(0, 0, 0);stroke-linecap:square;stroke-width:2" />
	<line x1="140" y1="150" x2="290" y2="150" style="stroke:rgb(0, 0, 0);stroke-linecap:square;stroke-width:2" />
	<text x="80" y="130" style="font-family:Arial;font-size:11px;text-anchor:middle" dominant-baseline="middle" transform="rotate(0, 80, 130)">Temperature Sensor</text>
	<rect x="30" y="140" width="100" height="40" style="fill-opacity:0;fill:rgb(0, 0, 0);stroke:rgb(0, 0, 0);stroke-width:2" />
	<line x1="130" y1="150" x2="140" y2="150" style="stroke:rgb(0, 0, 0);stroke-linecap:square;stroke-width:2" />
	<text x="126" y="150" style="font-family:Arial;font-size:11px;text-anchor:end" dominant-baseline="middle" transform="rotate(0, 126, 150)">3.3V</text>
	<line x1="130" y1="160" x2="140" y2="160" style="stroke:rgb(0, 0, 0);stroke-linecap:square;stroke-width:2" />
	<text x="126" y="160" style="font-family:Arial;font-size:11px;text-anchor:end" dominant-baseline="middle" transform="rotate(0, 126, 160)">Analog OUT</text>
	<line x1="130" y1="170" x2="140" y2="170" style="stroke:rgb(0, 0, 0);stroke-linecap:square;stroke-width:2" />
	<text x="126" y="170" style="font-family:Arial;font-size:11px;text-anchor:end" dominant-baseline="middle" transform="rotate(0, 126, 170)">GND</text>
	<rect x="295" y="75" width="120" height="195" style="fill-opacity:0;fill:rgb(0, 0, 0);stroke:rgb(0, 0, 0);stroke-width:2" />
	<text x="331" y="105" style="font-family:Arial;font-size:11px;text-anchor:start" dominant-baseline="middle" transform="rotate(0, 331, 105)">ARDUINO</text>
	<text x="338" y="115" style="font-family:Arial;font-size:11px;text-anchor:start" dominant-baseline="middle" transform="rotate(0, 338, 115)">UNO r3</text>
	<line x1="290" y1="130" x2="295" y2="130" style="stroke:rgb(0, 0, 0);stroke-linecap:square;stroke-width:2" />
	<line x1="290" y1="140" x2="295" y2="140" style="stroke:rgb(0, 0, 0);stroke-linecap:square;stroke-width:2" />
	<line x1="290" y1="150" x2="295" y2="150" style="stroke:rgb(0, 0, 0);stroke-linecap:square;stroke-width:2" />
	<line x1="290" y1="160" x2="295" y2="160" style="stroke:rgb(0, 0, 0);stroke-linecap:square;stroke-width:2" />
	<line x1="290" y1="170" x2="295" y2="170" style="stroke:rgb(0, 0, 0);stroke-linecap:square;stroke-width:2" />
	<line x1="290" y1="180" x2="295" y2="180" style="stroke:rgb(0, 0, 0);stroke-linecap:square;stroke-width:2" />
	<line x1="290" y1="190" x2="295" y2="190" style="stroke:rgb(0, 0, 0);stroke-linecap:square;stroke-width:2" />
	<line x1="290" y1="210" x2="295" y2="210" style="stroke:rgb(0, 0, 0);stroke-linecap:square;stroke-width:2" />
	<line x1="290" y1="220" x2="295" y2="220" style="stroke:rgb(0, 0, 0);stroke-linecap:square;stroke-width:2" />
	<line x1="290" y1="230" x2="295" y2="230" style="stroke:rgb(0, 0, 0);stroke-linecap:square;stroke-width:2" />
	<line x1="290" y1="240" x2="295" y2="240" style="stroke:rgb(0, 0, 0);stroke-linecap:square;stroke-width:2" />
	<line x1="290" y1="250" x2="295" y2="250" style="stroke:rgb(0, 0, 0);stroke-linecap:square;stroke-width:2" />
	<line x1="290" y1="260" x2="295" y2="260" style="stroke:rgb(0, 0, 0);stroke-linecap:square;stroke-width:2" />
	<line x1="415" y1="100" x2="420" y2="100" style="stroke:rgb(0, 0, 0);stroke-linecap:square;stroke-width:2" />
	<line x1="415" y1="110" x2="420" y2="110" style="stroke:rgb(0, 0, 0);stroke-linecap:square;stroke-width:2" />
	<line x1="415" y1="120" x2="420" y2="120" style="stroke:rgb(0, 0, 0);stroke-linecap:square;stroke-width:2" />
	<line x1="415" y1="130" x2="420" y2="130" style="stroke:rgb(0, 0, 0);stroke-linecap:square;stroke-width:2" />
	<line x1="415" y1="140" x2="420" y2="140" style="stroke:rgb(0, 0, 0);stroke-linecap:square;stroke-width:2" />
	<line x1="415" y1="150" x2="420" y2="150" style="stroke:rgb(0, 0, 0);stroke-linecap:square;stroke-width:2" />
	<line x1="415" y1="160" x2="420" y2="160" style="stroke:rgb(0, 0, 0);stroke-linecap:square;stroke-width:2" />
	<line x1="415" y1="170" x2="420" y2="170" style="stroke:rgb(0, 0, 0);stroke-linecap:square;stroke-width:2" />
	<line x1="415" y1="190" x2="420" y2="190" style="stroke:rgb(0, 0, 0);stroke-linecap:square;stroke-width:2" />
	<line x1="415" y1="200" x2="420" y2="200" style="stroke:rgb(0, 0, 0);stroke-linecap:square;stroke-width:2" />
	<line x1="415" y1="210" x2="420" y2="210" style="stroke:rgb(0, 0, 0);stroke-linecap:square;stroke-width:2" />
	<line x1="415" y1="220" x2="420" y2="220" style="stroke:rgb(0, 0, 0);stroke-linecap:square;stroke-width:2" />
	<line x1="415" y1="230" x2="420" y2="230" style="stroke:rgb(0, 0, 0);stroke-linecap:square;stroke-width:2" />
	<line x1="415" y1="240" x2="420" y2="240" style="stroke:rgb(0, 0, 0);stroke-linecap:square;stroke-width:2" />
	<line x1="415" y1="250" x2="420" y2="250" style="stroke:rgb(0, 0, 0);stroke-linecap:square;stroke-width:2" />
	<line x1="415" y1="260" x2="420" y2="260" style="stroke:rgb(0, 0, 0);stroke-linecap:square;stroke-width:2" />
	<text x="299" y="130" style="font-family:Arial;font-size:11px;text-anchor:start" dominant-baseline="middle" transform="rotate(0, 299, 130)">IOREF</text>
	<text x="299" y="140" style="font-family:Arial;font-size:11px;text-anchor:start" dominant-baseline="middle" transform="rotate(0, 299, 140)">RESET</text>
	<text x="299" y="150" style="font-family:Arial;font-size:11px;text-anchor:start" dominant-baseline="middle" transform="rotate(0, 299, 150)">3.3V</text>
	<text x="299" y="160" style="font-family:Arial;font-size:11px;text-anchor:start" dominant-baseline="middle" transform="rotate(0, 299, 160)">5V</text>
	<text x="299" y="170" style="font-family:Arial;font-size:11px;text-anchor:start" dominant-baseline="middle" transform="rotate(0, 299, 170)">GND</text>
	<text x="299" y="180" style="font-family:Arial;font-size:11px;text-anchor:start" dominant-baseline="middle" transform="rotate(0, 299, 180)">GND</text>
	<text x="299" y="190" style="font-family:Arial;font-size:11px;text-anchor:start" dominant-baseline="middle" transform="rotate(0, 299, 190)">Vin</text>
	<text x="299" y="210" style="font-family:Arial;font-size:11px;text-anchor:start" dominant-baseline="middle" transform="rotate(0, 299, 210)">A0</text>
	<text x="299" y="220" style="font-family:Arial;font-size:11px;text-anchor:start" dominant-baseline="middle" transform="rotate(0, 299, 220)">A1</text>
	<text x="299" y="230" style="font-family:Arial;font-size:11px;text-anchor:start" dominant-baseline="middle" transform="rotate(0, 299, 230)">A2</text>
	<text x="299" y="240" style="font-family:Arial;font-size:11px;text-anchor:start" dominant-baseline="middle" transform="rotate(0, 299, 240)">A3</text>
	<text x="299" y="250" style="font-family:Arial;font-size:11px;text-anchor:start" dominant-baseline="middle" transform="rotate(0, 299, 250)">A4</text>
	<text x="299" y="260" style="font-family:Arial;font-size:11px;text-anchor:start" dominant-baseline="middle" transform="rotate(0, 299, 260)">A5</text>
	<text x="411" y="100" style="font-family:Arial;font-size:11px;text-anchor:end" dominant-baseline="middle" transform="rotate(0, 411, 100)">AREF</text>
	<text x="411" y="110" style="font-family:Arial;font-size:11px;text-anchor:end" dominant-baseline="middle" transform="rotate(0, 411, 110)">GND</text>
	<text x="411" y="120" style="font-family:Arial;font-size:11px;text-anchor:end" dominant-baseline="middle" transform="rotate(0, 411, 120)">D13</text>
	<text x="411" y="130" style="font-family:Arial;font-size:11px;text-anchor:end" dominant-baseline="middle" transform="rotate(0, 411, 130)">D12</text>
	<text x="411" y="140" style="font-family:Arial;font-size:11px;text-anchor:end" dominant-baseline="middle" transform="rotate(0, 411, 140)">PWM D11</text>
	<text x="411" y="150" style="font-family:Arial;font-size:11px;text-anchor:end" dominant-baseline="middle" transform="rotate(0, 411, 150)">PWM D10</text>
	<text x="411" y="160" style="font-family:Arial;font-size:11px;text-anchor:end" dominant-baseline="middle" transform="rotate(0, 411, 160)">PWM   D9</text>
	<text x="411" y="170" style="font-family:Arial;font-size:11px;text-anchor:end" dominant-baseline="middle" transform="rotate(0, 411, 170)">D8</text>
	<text x="411" y="190" style="font-family:Arial;font-size:11px;text-anchor:end" dominant-baseline="middle" transform="rotate(0, 411, 190)">D7</text>
	<text x="411" y="200" style="font-family:Arial;font-size:11px;text-anchor:end" dominant-baseline="middle" transform="rotate(0, 411, 200)">PWM   D6</text>
	<text x="411" y="210" style="font-family:Arial;font-size:11px;text-anchor:end" dominant-baseline="middle" transform="rotate(0, 411, 210)">PWM   D5</text>
	<text x="411" y="220" style="font-family:Arial;font-size:11px;text-anchor:end" dominant-baseline="middle" transform="rotate(0, 411, 220)">D4</text>
	<text x="411" y="230" style="font-family:Arial;font-size:11px;text-anchor:end" dominant-baseline="middle" transform="rotate(0, 411, 230)">PWM   D3</text>
	<text x="411" y="240" style="font-family:Arial;font-size:11px;text-anchor:end" dominant-baseline="middle" transform="rotate(0, 411, 240)">D2</text>
	<text x="411" y="250" style="font-family:Arial;font-size:11px;text-anchor:end" dominant-baseline="middle" transform="rotate(0, 411, 250)">TX   D1</text>
	<text x="411" y="260" style="font-family:Arial;font-size:11px;text-anchor:end" dominant-baseline="middle" transform="rotate(0, 411, 260)">RX   D0</text>
	<path d="M 355,90 M 355,90 c 2,9 15,9 15,0 c 0,-9 -13,-9 -15,0" style="fill-opacity:0;fill:rgb(0, 0, 0);stroke:rgb(0, 0, 0);stroke-linecap:square;stroke-width:2" />
	<path d="M 355,90 M 355,90 c -2,-9 -15,-9 -15,0 c 0,9 13,9 15,0" style="fill-opacity:0;fill:rgb(0, 0, 0);stroke:rgb(0, 0, 0);stroke-linecap:square;stroke-width:2" />
	<line x1="361" y1="90" x2="365" y2="90" style="stroke:rgb(0, 0, 0);stroke-linecap:square;stroke-width:2" />
	<line x1="363" y1="92" x2="363" y2="88" style="stroke:rgb(0, 0, 0);stroke-linecap:square;stroke-width:2" />
	<line x1="349" y1="90" x2="345" y2="90" style="stroke:rgb(0, 0, 0);stroke-linecap:square;stroke-width:2" />
	<ellipse cx="520" cy="110" rx="2" ry="2" style="fill-opacity:1;fill:rgb(0, 0, 0);stroke:rgb(0, 0, 0);stroke-width:2" />
	<ellipse cx="140" cy="170" rx="2" ry="2" style="fill-opacity:1;fill:rgb(0, 0, 0);stroke:rgb(0, 0, 0);stroke-width:2" />
</svg>