<?xml version="1.0" encoding="utf-8"?>
<!-- Generator: Circuit Diagram, cdlibrary.dll 1.0.0.0 -->
<!DOCTYPE svg PUBLIC "-//W3C//DTD SVG 1.1//EN" "http://www.w3.org/Graphics/SVG/1.1/DTD/svg11.dtd">
<svg version="1.1" width="580" height="360" xmlns="http://www.w3.org/2000/svg">
	<line x1="390" y1="190" x2="390" y2="200" style="stroke:rgb(0, 0, 0);stroke-linecap:square;stroke-width:2" />
	<line x1="380" y1="210" x2="380" y2="260" style="stroke:rgb(0, 0, 0);stroke-linecap:square;stroke-width:2" />
	<line x1="270" y1="260" x2="380" y2="260" style="stroke:rgb(0, 0, 0);stroke-linecap:square;stroke-width:2" />
	<line x1="140" y1="290" x2="190" y2="290" style="stroke:rgb(0, 0, 0);stroke-linecap:square;stroke-width:2" />
	<line x1="190" y1="260" x2="190" y2="290" style="stroke:rgb(0, 0, 0);stroke-linecap:square;stroke-width:2" />
	<line x1="190" y1="260" x2="220" y2="260" style="stroke:rgb(0, 0, 0);stroke-linecap:square;stroke-width:2" />
	<line x1="400" y1="220" x2="400" y2="340" style="stroke:rgb(0, 0, 0);stroke-linecap:square;stroke-width:2" />
	<line x1="390" y1="340" x2="400" y2="340" style="stroke:rgb(0, 0, 0);stroke-linecap:square;stroke-width:2" />
	<line x1="140" y1="340" x2="390" y2="340" style="stroke:rgb(0, 0, 0);stroke-linecap:square;stroke-width:2" />
	<line x1="140" y1="270" x2="140" y2="340" style="stroke:rgb(0, 0, 0);stroke-linecap:square;stroke-width:2" />
	<line x1="100" y1="270" x2="140" y2="270" style="stroke:rgb(0, 0, 0);stroke-linecap:square;stroke-width:2" />
	<line x1="350" y1="210" x2="380" y2="210" style="stroke:rgb(0, 0, 0);stroke-linecap:square;stroke-width:2" />
	<line x1="350" y1="100" x2="350" y2="210" style="stroke:rgb(0, 0, 0);stroke-linecap:square;stroke-width:2" />
	<line x1="170" y1="100" x2="350" y2="100" style="stroke:rgb(0, 0, 0);stroke-linecap:square;stroke-width:2" />
	<line x1="200" y1="130" x2="220" y2="130" style="stroke:rgb(0, 0, 0);stroke-linecap:square;stroke-width:2" />
	<line x1="220" y1="130" x2="220" y2="180" style="stroke:rgb(0, 0, 0);stroke-linecap:square;stroke-width:2" />
	<line x1="40" y1="180" x2="220" y2="180" style="stroke:rgb(0, 0, 0);stroke-linecap:square;stroke-width:2" />
	<line x1="440" y1="270" x2="480" y2="270" style="stroke:rgb(0, 0, 0);stroke-linecap:square;stroke-width:2" />
	<line x1="440" y1="210" x2="440" y2="270" style="stroke:rgb(0, 0, 0);stroke-linecap:square;stroke-width:2" />
	<line x1="420" y1="210" x2="440" y2="210" style="stroke:rgb(0, 0, 0);stroke-linecap:square;stroke-width:2" />
	<line x1="520" y1="270" x2="560" y2="270" style="stroke:rgb(0, 0, 0);stroke-linecap:square;stroke-width:2" />
	<line x1="560" y1="30" x2="560" y2="270" style="stroke:rgb(0, 0, 0);stroke-linecap:square;stroke-width:2" />
	<line x1="40" y1="30" x2="560" y2="30" style="stroke:rgb(0, 0, 0);stroke-linecap:square;stroke-width:2" />
	<line x1="40" y1="30" x2="40" y2="270" style="stroke:rgb(0, 0, 0);stroke-linecap:square;stroke-width:2" />
	<line x1="40" y1="270" x2="90" y2="270" style="stroke:rgb(0, 0, 0);stroke-linecap:square;stroke-width:2" />
	<line x1="480" y1="270" x2="487" y2="270" style="stroke:rgb(0, 0, 0);stroke-linecap:square;stroke-width:2" />
	<line x1="513" y1="270" x2="520" y2="270" style="stroke:rgb(0, 0, 0);stroke-linecap:square;stroke-width:2" />
	<ellipse cx="500" cy="270" rx="12" ry="12" style="fill-opacity:0;fill:rgb(0, 0, 0);stroke:rgb(0, 0, 0);stroke-width:2" />
	<text x="500" y="270" style="font-family:Arial;font-size:12px;text-anchor:middle" dominant-baseline="middle" transform="rotate(0, 500, 270)">M</text>
	<line x1="220" y1="260" x2="225" y2="260" style="stroke:rgb(0, 0, 0);stroke-linecap:square;stroke-width:2" />
	<line x1="265" y1="260" x2="270" y2="260" style="stroke:rgb(0, 0, 0);stroke-linecap:square;stroke-width:2" />
	<rect x="225" y="252" width="40" height="16" style="fill-opacity:0;fill:rgb(0, 0, 0);stroke:rgb(0, 0, 0);stroke-width:2" />
	<text x="245" y="246" style="font-family:Arial;font-size:11px;text-anchor:middle" dominant-baseline="baseline" transform="rotate(0, 245, 246)">4.7 kΩ</text>
	<line x1="370" y1="210" x2="382" y2="210" style="stroke:rgb(0, 0, 0);stroke-linecap:square;stroke-width:2" />
	<line x1="409" y1="210" x2="420" y2="210" style="stroke:rgb(0, 0, 0);stroke-linecap:square;stroke-width:2" />
	<line x1="382" y1="185" x2="410" y2="185" style="stroke:rgb(0, 0, 0);stroke-linecap:square;stroke-width:2" />
	<line x1="410" y1="170" x2="410" y2="185" style="stroke:rgb(0, 0, 0);stroke-linecap:square;stroke-width:2" />
	<line x1="380" y1="192" x2="385" y2="192" style="stroke:rgb(0, 0, 0);stroke-linecap:square;stroke-width:4" />
	<line x1="393" y1="192" x2="398" y2="192" style="stroke:rgb(0, 0, 0);stroke-linecap:square;stroke-width:4" />
	<line x1="406" y1="192" x2="411" y2="192" style="stroke:rgb(0, 0, 0);stroke-linecap:square;stroke-width:4" />
	<line x1="382" y1="192" x2="382" y2="210" style="stroke:rgb(0, 0, 0);stroke-linecap:square;stroke-width:2" />
	<line x1="409" y1="192" x2="409" y2="210" style="stroke:rgb(0, 0, 0);stroke-linecap:square;stroke-width:2" />
	<line x1="418" y1="210" x2="418" y2="220" style="stroke:rgb(0, 0, 0);stroke-linecap:square;stroke-width:2" />
	<ellipse cx="418" cy="210" rx="2" ry="2" style="fill-opacity:1;fill:rgb(0, 0, 0);stroke:rgb(0, 0, 0);stroke-width:2" />
	<line x1="396" y1="220" x2="418" y2="220" style="stroke:rgb(0, 0, 0);stroke-linecap:square;stroke-width:2" />
	<line x1="396" y1="192" x2="396" y2="220" style="stroke:rgb(0, 0, 0);stroke-linecap:square;stroke-width:2" />
	<path d="M 396,195 L 399,199 L 393,199 L 396,195 L 398,197" style="fill-opacity:1;fill:rgb(0, 0, 0);stroke:rgb(0, 0, 0);stroke-linecap:square;stroke-width:2" />
	<line x1="170" y1="100" x2="170" y2="110" style="stroke:rgb(0, 0, 0);stroke-linecap:square;stroke-width:2" />
	<line x1="170" y1="150" x2="170" y2="150" style="stroke:rgb(0, 0, 0);stroke-linecap:square;stroke-width:2" />
	<path d="M 170,110 L 170,112 L 163,115 L 177,121 L 163,127 L 177,133 L 163,139 L 177,145 L 170,148 L 170,150" style="fill-opacity:0;fill:rgb(0, 0, 0);stroke:rgb(0, 0, 0);stroke-linecap:square;stroke-width:2" />
	<text x="156" y="130" style="font-family:Arial;font-size:11px;text-anchor:end" dominant-baseline="middle" transform="rotate(0, 156, 130)">10 kΩ</text>
	<path d="M 170,110 M 186,124 L 180,130 L 186,136 M 181,130 L 199,130" style="fill-opacity:0;fill:rgb(0, 0, 0);stroke:rgb(0, 0, 0);stroke-linecap:square;stroke-width:2" />
	<line x1="100" y1="270" x2="104" y2="270" style="stroke:rgb(0, 0, 0);stroke-linecap:square;stroke-width:2" />
	<line x1="104" y1="260" x2="104" y2="280" style="stroke:rgb(0, 0, 0);stroke-linecap:square;stroke-width:2" />
	<line x1="98" y1="265" x2="98" y2="275" style="stroke:rgb(0, 0, 0);stroke-linecap:square;stroke-width:2" />
	<line x1="92" y1="260" x2="92" y2="280" style="stroke:rgb(0, 0, 0);stroke-linecap:square;stroke-width:2" />
	<line x1="86" y1="265" x2="86" y2="275" style="stroke:rgb(0, 0, 0);stroke-linecap:square;stroke-width:2" />
	<line x1="86" y1="270" x2="90" y2="270" style="stroke:rgb(0, 0, 0);stroke-linecap:square;stroke-width:2" />
	<text x="95" y="258" style="font-family:Arial;font-size:12px;text-anchor:middle" dominant-baseline="baseline" transform="rotate(0, 95, 258)">+12V</text>
	<ellipse cx="140" cy="290" rx="2" ry="2" style="fill-opacity:1;fill:rgb(0, 0, 0);stroke:rgb(0, 0, 0);stroke-width:2" />
	<ellipse cx="40" cy="180" rx="2" ry="2" style="fill-opacity:1;fill:rgb(0, 0, 0);stroke:rgb(0, 0, 0);stroke-width:2" />
</svg>